HIERARCHY
ROOT Hips
{
	OFFSET 0.000000 0.000000 0.000000 
	CHANNELS 6 Xposition Yposition Zposition Zrotation Yrotation Xrotation
	JOINT LeftUpLeg
	{
		OFFSET 1.363060 -1.794630 0.839290 
		CHANNELS 3 Zrotation Yrotation Xrotation
		JOINT LeftLeg
		{
			OFFSET 2.448110 -6.726130 0.000000 
			CHANNELS 3 Zrotation Yrotation Xrotation
			JOINT LeftFoot
			{
				OFFSET 2.562200 -7.039590 0.000000 
				CHANNELS 3 Zrotation Yrotation Xrotation
				JOINT LeftToeBase
				{
					OFFSET 0.157640 -0.433110 2.322550 
					CHANNELS 3 Zrotation Yrotation Xrotation
					End Site
					{
						OFFSET 0.000000 0.000000 0.000000 
					}
				}
			}
		}
	}
	JOINT RightUpLeg
	{
		OFFSET -1.305520 -1.794630 0.839290 
		CHANNELS 3 Zrotation Yrotation Xrotation
		JOINT RightLeg
		{
			OFFSET -2.542530 -6.985550 0.000000 
			CHANNELS 3 Zrotation Yrotation Xrotation
			JOINT RightFoot
			{
				OFFSET -2.568260 -7.056230 0.000000 
				CHANNELS 3 Zrotation Yrotation Xrotation
				JOINT RightToeBase
				{
					OFFSET -0.164730 -0.452590 2.363150 
					CHANNELS 3 Zrotation Yrotation Xrotation
					End Site
					{
						OFFSET 0.000000 0.000000 0.000000 
					}
				}
			}
		}
	}
	JOINT Spine
	{
		OFFSET 0.028270 2.035590 -0.193380 
		CHANNELS 3 Zrotation Yrotation Xrotation
		JOINT Spine1
		{
			OFFSET 0.056720 2.048850 -0.042750 
			CHANNELS 3 Zrotation Yrotation Xrotation
			JOINT Neck1
			{
				OFFSET -0.054170 1.746240 0.172020 
				CHANNELS 3 Zrotation Yrotation Xrotation
				JOINT Head
				{
					OFFSET 0.104070 1.761360 -0.123970 
					CHANNELS 3 Zrotation Yrotation Xrotation
					End Site
					{
						OFFSET 0.000000 0.000000 0.000000 
					}
				}
			}
			JOINT LeftArm
			{
				OFFSET 3.362410 1.200890 -0.311210 
				CHANNELS 3 Zrotation Yrotation Xrotation
				JOINT LeftForeArm
				{
					OFFSET 4.983000 -0.000000 -0.000000 
					CHANNELS 3 Zrotation Yrotation Xrotation
					JOINT LeftHand
					{
						OFFSET 3.483560 -0.000000 -0.000000 
						CHANNELS 3 Zrotation Yrotation Xrotation
						JOINT LeftHandIndex1
						{
							OFFSET 0.715260 -0.000000 -0.000000 
							CHANNELS 3 Zrotation Yrotation Xrotation
							End Site
							{
								OFFSET 0.000000 0.000000 0.000000 
							}
						}
					}
				}
			}
			JOINT RightArm
			{
				OFFSET -3.136600 1.374050 -0.404650 
				CHANNELS 3 Zrotation Yrotation Xrotation
				JOINT RightForeArm
				{
					OFFSET -5.241900 -0.000000 -0.000000 
					CHANNELS 3 Zrotation Yrotation Xrotation
					JOINT RightHand
					{
						OFFSET -3.444170 -0.000000 -0.000000 
						CHANNELS 3 Zrotation Yrotation Xrotation
						JOINT RightHandIndex1
						{
							OFFSET -0.622530 -0.000000 -0.000000 
							CHANNELS 3 Zrotation Yrotation Xrotation
							End Site
							{
								OFFSET 0.000000 0.000000 0.000000 
							}
						}
					}
				}
			}
		}
	}
}
MOTION
Frames: 6
Frame Time: 0.041667
0.421769 17.412187 -20.053105 -7.850650 -29.044823 0.336761 -12.126234 6.598310 -25.526960 0.122449 8.393009 20.732452 -1.804571 9.668252 -5.331325 0.225100 -3.053800 -8.428700 29.899284 -4.767427 18.838323 1.190456 -2.531273 9.351135 2.640249 -12.387859 -11.482922 -0.110300 2.141900 -5.897800 1.891937 -1.198307 -2.000858 0.979519 -0.208399 -4.659412 10.779803 -23.181914 2.539791 5.103100 -11.425700 -0.832700 -82.527470 26.249971 12.040900 6.778048 -21.808313 -2.982537 -0.235458 -1.861257 -22.769521 -7.125000 0.000000 0.000000 64.359164 -0.133575 42.532416 -11.082070 24.165320 -3.398059 0.258074 0.751687 8.262586 7.125000 0.000000 0.000000 
0.387078 17.393176 -19.967505 -8.074804 -29.213050 0.568989 -11.908372 6.436598 -25.215214 0.131880 8.401740 20.796883 -1.726839 9.378527 -5.351694 0.230100 -3.087800 -8.523200 29.999392 -4.732454 18.994630 1.182671 -2.569831 9.465150 2.585252 -12.194568 -11.419033 -0.121400 2.246200 -6.186600 1.881902 -1.193899 -2.008763 0.926941 -0.209103 -4.657214 10.748623 -23.105170 2.598880 5.083000 -11.393200 -0.834200 -82.264451 26.180816 11.958546 6.738163 -21.761181 -2.976155 -0.237083 -1.865590 -22.768551 -7.125000 0.000000 0.000000 64.627613 -0.420720 42.269152 -11.037178 24.147622 -3.390584 0.259333 0.743430 8.444439 7.125000 0.000000 0.000000 
0.352065 17.375562 -19.880402 -8.294932 -29.381835 0.798713 -11.729950 6.399048 -24.964272 0.150962 8.426106 20.907893 -1.656723 9.110313 -5.220930 0.245500 -3.188600 -8.804400 30.084863 -4.708113 19.191303 1.178792 -2.585095 9.519973 2.532536 -11.998932 -11.309522 -0.134700 2.365700 -6.517400 1.870528 -1.191185 -2.016319 0.873835 -0.210332 -4.655295 10.731675 -23.031496 2.644314 5.077200 -11.361500 -0.838900 -81.987730 26.098383 11.886020 6.703883 -21.720202 -2.971823 -0.239515 -1.870122 -22.773428 -7.125000 0.000000 0.000000 64.896048 -0.718991 41.973140 -10.990901 24.130449 -3.383281 0.266791 0.732559 8.621409 7.125000 0.000000 0.000000 
0.317482 17.361171 -19.791365 -8.503718 -29.558527 1.028498 -11.577391 6.446573 -24.782494 0.177018 8.461349 21.046625 -1.607992 8.915362 -4.946379 0.265700 -3.316100 -9.160100 30.143869 -4.689724 19.441733 1.181533 -2.561617 9.475206 2.489695 -11.819025 -11.122082 -0.150800 2.502200 -6.895800 1.858323 -1.190300 -2.023376 0.824013 -0.211685 -4.653683 10.731890 -22.960236 2.669207 5.089400 -11.329500 -0.850000 -81.702659 25.997544 11.849990 6.677230 -21.687962 -2.969458 -0.243528 -1.876956 -22.816257 -7.125000 0.000000 0.000000 65.153136 -1.016138 41.641437 -10.938482 24.107715 -3.374410 0.278153 0.718774 8.788336 7.125000 0.000000 0.000000 
0.283435 17.351397 -19.700180 -8.677737 -29.748859 1.246950 -11.450700 6.523517 -24.658942 0.206120 8.502203 21.191280 -1.594543 8.849668 -4.543802 0.289400 -3.459400 -9.560600 30.147533 -4.672803 19.751986 1.191948 -2.492865 9.315776 2.460080 -11.662315 -10.837745 -0.169900 2.655000 -7.319700 1.844011 -1.190109 -2.029591 0.778675 -0.211989 -4.646826 10.742240 -22.891038 2.677608 5.112800 -11.297300 -0.867500 -81.414661 25.867182 11.826472 6.651076 -21.653131 -2.966189 -0.249404 -1.883211 -22.870589 -7.125000 0.000000 0.000000 65.399240 -1.304514 41.267821 -10.879378 24.078354 -3.364517 0.290329 0.706154 8.930992 7.125000 0.000000 0.000000 
0.250140 17.347101 -19.606418 -8.816657 -29.951724 1.457837 -11.334906 6.597248 -24.582558 0.235176 8.542836 21.323456 -1.614164 8.908951 -4.029083 0.306600 -3.559700 -9.841200 30.099833 -4.653428 20.104439 1.208080 -2.387974 9.064217 2.447556 -11.544510 -10.462432 -0.192300 2.823900 -7.788800 1.829378 -1.196066 -2.034693 0.746242 -0.213912 -4.626957 10.752046 -22.818066 2.675062 5.138700 -11.261700 -0.890900 -81.137341 25.702344 11.808476 6.624581 -21.614416 -2.961273 -0.257865 -1.889513 -22.939479 -7.125000 0.000000 0.000000 65.621874 -1.578954 40.881171 -10.816128 24.043852 -3.353358 0.304286 0.694545 9.016622 7.125000 0.000000 0.000000 
